<?xml version="1.0" ?><!DOCTYPE svg  PUBLIC '-//W3C//DTD SVG 1.1//EN'  'http://www.w3.org/Graphics/SVG/1.1/DTD/svg11.dtd'><svg height="512px" style="enable-background:new 0 0 512 512;" version="1.1" viewBox="0 0 512 512" width="512px" xml:space="preserve" xmlns="http://www.w3.org/2000/svg" xmlns:xlink="http://www.w3.org/1999/xlink"><g id="_x36_1-nvidia"><g><g><path d="M197.105,193.468c39.787,0,76.057,30.855,77.578,32.178c6.232,5.378,6.918,14.771,1.58,21.049     c-5.34,6.285-14.732,6.968-20.996,1.648c-0.303-0.239-29.531-24.94-58.162-24.94c-0.232-0.027-0.506,0.055-0.74,0.055v61.968     c6.141,1.858,12.699,3.171,20.129,3.171c42.592,0,92.934-34.42,123.148-60.917c-33.705-27.813-90.965-61.4-132.842-61.4     c-3.404,0-6.92,0.424-10.436,0.839v26.407C196.6,193.524,196.834,193.468,197.105,193.468L197.105,193.468z M197.105,193.468" style="fill:#5ACF5F;"/><path d="M479.701,76.565H211.273c-8.229,0-14.908,6.698-14.908,14.953v45.604     c3.482-0.327,6.975-0.749,10.436-0.749c59.297,0,132.9,49.224,165.346,80.27c2.957,2.783,4.598,6.669,4.627,10.706     c0.033,4.036-1.611,7.959-4.471,10.795c-8.383,8.222-83.93,80.385-155.838,80.385c-7.189,0-13.814-0.868-20.133-2.118v27.661     c3.666,0.839,7.309,1.646,10.469,1.646c41.576,0,164.217-34.003,202.814-71.863c5.844-5.778,15.359-5.65,21.082,0.239     c5.758,5.891,5.641,15.368-0.232,21.145c-46.473,45.631-176.363,80.385-223.664,80.385c-3.311,0-6.953-1.018-10.436-1.557v46.411     c0,8.255,6.68,14.958,14.908,14.958h268.428c8.236,0,14.916-6.703,14.916-14.958V91.518     C494.617,83.264,487.938,76.565,479.701,76.565L479.701,76.565z M479.701,76.565" style="fill:#5ACF5F;"/><g><path d="M147.657,241.855c10.734-7.271,29.883-18.095,48.708-18.398v-29.933      c-39.524,0.386-75.314,30.799-76.837,32.09c-4.617,3.979-6.348,10.378-4.383,16.147c0.956,2.873,22.284,63.015,81.22,74.648      v-30.956C169.641,277.442,154.399,255.042,147.657,241.855L147.657,241.855z M147.657,241.855" style="fill:#5ACF5F;"/><path d="M55.436,232.345c10.739-5.773,21.713-12.023,32.719-18.338      c37.073-21.2,75.248-42.853,108.21-46.89v-29.995c-40.002,3.708-82.116,27.545-122.976,50.931      c-16.195,9.24-32.18,18.389-47.63,25.954c-4.027,1.979-6.979,5.688-7.993,10.083c-1.012,4.392,0,9.006,2.775,12.559      c50.672,64.926,122.701,129.612,175.824,137.418v-29.995C161.106,336.206,104.739,291.735,55.436,232.345L55.436,232.345z       M55.436,232.345" style="fill:#5ACF5F;"/></g></g></g></g><g id="Layer_1"/></svg>